#!OML:ASF E:\Steps\Project 1\Capture day 1\Session 2\Subject.ASF
:FULLY-SPECIFIED
:DEGREES
385
root 12.3869 17.2722 8.65441 -155.672 -4.37042 177.952
lowerback -24.0499 -0.533102 -7.17687
upperback -2.25753 0.812605 -2.12142
thorax 10.8498 -0.167693 1.94994
lowerneck -2.71797 -0.276775 -1.74045
upperneck 4.21846 -0.397013 1.76976
head 1.78369 -0.197239 0.83966
rclavicle -2.67365e-014 1.74931e-014
rhumerus -41.045 -15.9743 -79.0745
rradius 37.2825
rwrist -8.63933
rhand -2.31601 -56.154
rfingers 7.12502
rthumb 23.3703 -444.755
lclavicle -2.67365e-014 1.74931e-014
lhumerus -39.3909 8.31162 64.3024
lradius 28.1137
lwrist -1.66752
lhand -18.583 -10.7074
lfingers 7.12502
lthumb 7.70768 19.1321
rfemur -26.7352 -0.449394 24.8235
rtibia 19.2562
rfoot -22.29 -0.67501
rtoes 0.702519
lfemur -29.6141 -13.4657 -18.5059
ltibia 17.2236
lfoot -6.32037 -11.3909
ltoes -20.6002
386
root 12.3798 17.2743 8.63518 -155.681 -4.40463 178.047
lowerback -24.2638 -0.421791 -7.19159
upperback -2.36063 0.960689 -2.19139
thorax 10.8345 -0.105416 1.92769
lowerneck -2.82756 -0.247162 -1.78631
upperneck 3.96956 -0.353695 1.94007
head 1.72344 -0.170118 0.901454
rclavicle 1.19271e-015 1.27222e-014
rhumerus -41.2211 -16.7043 -78.6768
rradius 35.8765
rwrist -7.78346
rhand -2.07318 -56.4117
rfingers 7.12502
rthumb 23.6032 -444.983
lclavicle 1.19271e-015 1.27222e-014
lhumerus -39.4127 8.20247 64.8145
lradius 27.8614
lwrist -2.2897
lhand -18.7364 -11.0322
lfingers 7.12502
lthumb 7.55962 18.8127
rfemur -26.7942 -0.500398 24.8877
rtibia 19.5235
rfoot -22.034 -0.048453
rtoes 3.8634
lfemur -29.3851 -13.4188 -18.4561
ltibia 16.9316
lfoot -6.65844 -10.4509
ltoes -27.0908
387
root 12.3742 17.278 8.61683 -155.747 -4.4775 178.11
lowerback -24.374 -0.35931 -7.23374
upperback -2.45324 1.04625 -2.26558
thorax 10.7803 -0.0709963 1.89607
lowerneck -2.99274 -0.0372699 -1.93331
upperneck 3.66162 -0.0646278 2.16352
head 1.64958 -0.0204839 1.00296
rclavicle -9.93923e-016 2.78299e-014
rhumerus -41.2952 -17.2706 -78.364
rradius 34.4253
rwrist -7.18086
rhand -2.39505 -56.1074
rfingers 7.12502
rthumb 23.2944 -444.718
lclavicle -9.93923e-016 2.78299e-014
lhumerus -39.4909 8.2146 65.1731
lradius 27.6747
lwrist -2.94457
lhand -18.5876 -11.1131
lfingers 7.12502
lthumb 7.70317 18.7266
rfemur -26.8278 -0.680079 24.9807
rtibia 19.8156
rfoot -22.2986 -0.674762
rtoes -0.25873
lfemur -29.1511 -13.3507 -18.4488
ltibia 16.7556
lfoot -6.35839 -11.0444
ltoes -23.9564
388
root 12.3698 17.2831 8.60407 -155.8 -4.5293 178.091
lowerback -24.3921 -0.337563 -7.33067
upperback -2.58194 1.07745 -2.34876
thorax 10.6386 -0.0626775 1.86767
lowerneck -3.12637 0.166945 -2.0629
upperneck 3.3804 0.218368 2.30039
head 1.57757 0.123981 1.07384
rclavicle 2.42517e-014 6.44062e-014
rhumerus -41.4347 -17.742 -78.0352
rradius 33.0986
rwrist -6.34115
rhand -2.47055 -55.7611
rfingers 7.12502
rthumb 23.222 -444.381
lclavicle 2.42517e-014 6.44062e-014
lhumerus -39.6588 8.11639 65.5108
lradius 27.4481
lwrist -3.54048
lhand -18.6113 -11.5272
lfingers 7.12502
lthumb 7.68037 18.3133
rfemur -26.9868 -0.861034 24.9964
rtibia 20.282
rfoot -22.1019 0.0140609
rtoes 1.26454
lfemur -28.9327 -13.2595 -18.5363
ltibia 16.5315
lfoot -6.39721 -10.5317
ltoes -26.6645
389
root 12.3648 17.288 8.59292 -155.905 -4.67444 178.112
lowerback -24.3068 -0.302433 -7.35665
upperback -2.72458 1.09893 -2.44476
thorax 10.4287 -0.0521815 1.78174
lowerneck -3.19439 0.355991 -2.16947
upperneck 3.11259 0.471501 2.57541
head 1.49882 0.255103 1.18342
rclavicle 1.00386e-014 -3.10104e-014
rhumerus -41.7707 -18.3004 -77.6519
rradius 32.0195
rwrist -5.17853
rhand -2.57634 -54.9304
rfingers 7.12502
rthumb 23.1205 -443.563
lclavicle 1.00386e-014 -3.10104e-014
lhumerus -39.8524 7.83073 65.8684
lradius 27.3781
lwrist -3.92327
lhand -18.522 -11.4054
lfingers 7.12502
lthumb 7.76652 18.432
rfemur -27.0463 -0.99599 25.043
rtibia 20.7078
rfoot -22.4761 -0.508302
rtoes -2.44643
lfemur -28.6044 -13.0772 -18.6077
ltibia 16.1851
lfoot -5.78348 -11.6456
ltoes -21.0643
390
root 12.3562 17.293 8.58138 -156.104 -4.81374 178.157
lowerback -24.2266 -0.211892 -7.36093
upperback -2.8061 1.20316 -2.55989
thorax 10.2864 -0.00120422 1.6888
lowerneck -3.22326 0.442009 -2.03036
upperneck 2.97707 0.579313 2.65175
head 1.45781 0.311887 1.18493
rclavicle 1.09332e-015 -1.19271e-014
rhumerus -42.1922 -18.8964 -77.2505
rradius 31.122
rwrist -3.95776
rhand -2.97566 -54.389
rfingers 7.12502
rthumb 22.7373 -443.069
lclavicle 1.09332e-015 -1.19271e-014
lhumerus -39.8992 7.57587 66.2093
lradius 27.2648
lwrist -4.46757
lhand -18.0147 -11.8024
lfingers 7.12502
lthumb 8.2561 18.0163
rfemur -26.9832 -0.927944 25.0544
rtibia 21.1263
rfoot -22.9695 -1.11713
rtoes -5.39238
lfemur -28.1461 -12.938 -18.6931
ltibia 15.8245
lfoot -5.47134 -11.9679
ltoes -19.7355
391
root 12.3482 17.295 8.57207 -156.192 -4.79711 178.141
lowerback -24.3711 -0.113614 -7.49389
upperback -2.83005 1.37638 -2.65964
thorax 10.3205 0.0693213 1.70798
lowerneck -3.30484 0.399503 -1.77236
upperneck 2.79252 0.518918 2.55439
head 1.41414 0.283378 1.10728
rclavicle -9.64106e-015 -1.66979e-014
rhumerus -42.3899 -19.5257 -76.8045
rradius 30.049
rwrist -2.47775
rhand -2.82421 -54.8469
rfingers 7.12502
rthumb 22.8827 -443.509
lclavicle -9.64106e-015 -1.66979e-014
lhumerus -39.7082 7.48607 66.5636
lradius 26.9057
lwrist -5.12791
lhand -17.7706 -12.7359
lfingers 7.12502
lthumb 8.4917 17.0734
rfemur -27.1122 -0.84489 24.9822
rtibia 21.6576
rfoot -22.95 -0.996848
rtoes -3.82109
lfemur -27.8639 -12.9038 -18.8162
ltibia 15.5974
lfoot -5.44782 -11.7744
ltoes -20.0954
392
root 12.344 17.2956 8.56523 -156.168 -4.78561 178.132
lowerback -24.5834 -0.0606592 -7.63511
upperback -2.88418 1.4882 -2.73442
thorax 10.3597 0.107713 1.74037
lowerneck -3.4025 0.618118 -1.94298
upperneck 2.25452 0.821148 2.81325
head 1.25336 0.436611 1.221
rclavicle 3.8763e-015 7.15625e-015
rhumerus -42.4882 -20.0421 -76.4117
rradius 28.9524
rwrist -0.982855
rhand -2.50348 -55.6127
rfingers 7.12502
rthumb 23.1904 -444.237
lclavicle 3.8763e-015 7.15625e-015
lhumerus -39.5922 7.27617 66.9333
lradius 26.7174
lwrist -5.36034
lhand -17.6802 -13.1745
lfingers 7.12502
lthumb 8.57898 16.6312
rfemur -27.3752 -1.04455 24.979
rtibia 22.1553
rfoot -22.5788 -0.441286
rtoes -0.495871
lfemur -27.7934 -12.7459 -18.9048
ltibia 15.5028
lfoot -5.3612 -11.7266
ltoes -20.6437
393
root 12.3393 17.2955 8.56089 -156.115 -4.78715 178.133
lowerback -24.7806 0.0249274 -7.70732
upperback -2.97968 1.61777 -2.87163
thorax 10.3456 0.157195 1.66938
lowerneck -3.54111 0.942792 -1.8534
upperneck 1.99096 1.25712 2.78676
head 1.18305 0.654751 1.20451
rclavicle -3.97569e-016 -9.70069e-014
rhumerus -42.7933 -20.5176 -76.1219
rradius 28.197
rwrist 0.342303
rhand -3.24128 -54.8012
rfingers 7.12502
rthumb 22.4824 -443.512
lclavicle -3.97569e-016 -9.70069e-014
lhumerus -39.5941 6.92043 67.2396
lradius 26.7957
lwrist -5.5246
lhand -17.4333 -13.2226
lfingers 7.12502
lthumb 8.81725 16.5732
rfemur -27.7093 -1.41688 25.0117
rtibia 22.6423
rfoot -22.2999 0.14695
rtoes 0.878885
lfemur -27.7628 -12.5567 -18.9818
ltibia 15.3962
lfoot -5.25872 -11.5668
ltoes -22.2848
394
root 12.3342 17.2937 8.55928 -156.144 -4.78534 178.158
lowerback -24.8797 0.129297 -7.738
upperback -3.04167 1.76224 -3.00217
thorax 10.3183 0.219224 1.5872
lowerneck -3.72691 1.05671 -1.36671
upperneck 2.0445 1.39827 2.40124
head 1.23131 0.724476 1.00481
rclavicle 2.27608e-014 -4.05521e-014
rhumerus -43.1643 -21.0328 -75.7698
rradius 27.5973
rwrist 1.78898
rhand -2.9643 -54.8227
rfingers 7.12502
rthumb 22.7482 -443.502
lclavicle 2.27608e-014 -4.05521e-014
lhumerus -39.5433 6.70577 67.4968
lradius 26.8917
lwrist -5.88966
lhand -17.3348 -13.0532
lfingers 7.12502
lthumb 8.91224 16.7386
rfemur -28.0288 -1.55811 25.0329
rtibia 23.2394
rfoot -22.2113 0.348494
rtoes 0.454106
lfemur -27.6254 -12.4806 -19.0009
ltibia 15.1789
lfoot -5.57495 -10.8374
ltoes -27.251
395
root 12.3319 17.2933 8.55963 -156.282 -4.81618 178.207
lowerback -24.8575 0.197345 -7.77409
upperback -3.05568 1.86044 -3.07479
thorax 10.2838 0.264311 1.55782
lowerneck -3.83282 1.19336 -1.27598
upperneck 1.73743 1.57686 2.4834
head 1.14903 0.814177 1.0168
rclavicle -1.51076e-014 -1.59028e-015
rhumerus -43.4361 -21.3476 -75.4071
rradius 27.0339
rwrist 2.97991
rhand -2.69464 -54.3208
rfingers 7.12502
rthumb 23.007 -442.968
lclavicle -1.51076e-014 -1.59028e-015
lhumerus -39.4323 6.51353 67.7451
lradius 26.8566
lwrist -6.02892
lhand -17.4097 -13.121
lfingers 7.12502
lthumb 8.83998 16.6738
rfemur -28.2927 -1.40315 25.0373
rtibia 24.0271
rfoot -22.3774 0.420797
rtoes 0.452598
lfemur -27.35 -12.3974 -18.9863
ltibia 14.8723
lfoot -4.85251 -11.4554
ltoes -22.1429
